<svg width="26" height="26" fill="currentColor" viewBox="0 0 24 24" xmlns="http://www.w3.org/2000/svg">
  <path d="m8.686 4.001 2.607-2.607a1 1 0 0 1 1.414 0l2.607 2.607H19a1 1 0 0 1 1 1v3.686l2.607 2.607a1 1 0 0 1 0 1.414L20 15.315v3.686a1 1 0 0 1-1 1h-3.686l-2.607 2.607a1 1 0 0 1-1.414 0l-2.607-2.607H5a1 1 0 0 1-1-1v-3.686l-2.607-2.607a1 1 0 0 1 0-1.414L4 8.687V5.001a1 1 0 0 1 1-1h3.686ZM6 6.001v3.515l-2.485 2.485L6 14.486v3.515h3.515L12 20.486l2.485-2.485H18v-3.515l2.485-2.485L18 9.516V6.001h-3.515L12 3.516 9.515 6.001H6Zm6 10a4 4 0 1 1 0-8 4 4 0 0 1 0 8Zm0-2a2 2 0 1 0 0-4 2 2 0 0 0 0 4Z"></path>
</svg>